# xmcd
#
# Track frame offsets: 
#        150
#        14490
#        28000
#        46548
#        59255
#        71320
#        82085
#        95423
#        108658
#        121680
#        135163
#        145860
#        157878
#        170750
#        184523
#        193993
#
# Disc length: 2757 seconds
#
# Revision: 0
# Processed by: cddbd v1.5.2PL0 Copyright (c) Steve Scherf et al.
# Submitted via: ExactAudioCopy v0.95b3
#
DISCID=cf0ac310
DTITLE=The Victor Silvester Orchestra - Truly Great Dance Melodies [CD
DTITLE=1)
DYEAR=1994
DGENRE=Dance
TTITLE0=Old Fashioned Way (Slowfox)
TTITLE1=When I Fall In Love (Slowfox)
TTITLE2=Begin The Beguine (Rumba)
TTITLE3=Qunado Qunado Quando (Rumba)
TTITLE4=It Had To Be You (Cha Cha Cha)
TTITLE5=Gentle On My Mind (Quickstep)
TTITLE6=I'm In The Mood For Love (Slowfox)
TTITLE7=Charmaine (English Waltz)
TTITLE8=Dancing In The Dark (Quickstep)
TTITLE9=Red Roses For A Blue Lady (Quickstep)
TTITLE10=Wunderbar (Viennese Waltz)
TTITLE11=Strangers In The Night (Rumba)
TTITLE12=South Of The Border (Rumba)
TTITLE13=Chanson D'Amour (Slowfox)
TTITLE14=Guantanamera (Guajira Guantanamera) (Cha Cha Cha)
TTITLE15=Golden Tango (Tango)
EXTD=
EXTT0=
EXTT1=
EXTT2=
EXTT3=
EXTT4=
EXTT5=
EXTT6=
EXTT7=
EXTT8=
EXTT9=
EXTT10=
EXTT11=
EXTT12=
EXTT13=
EXTT14=
EXTT15=
PLAYORDER=
